<svg width="437" height="111.99999999999999" xmlns="http://www.w3.org/2000/svg" xmlns:svg="http://www.w3.org/2000/svg">
 <style type="text/css">.st0{fill:#E3000F;}</style>
 <g>
  <title>Layer 1</title>
  <g id="svg_1">
   <path d="m281.7,68.4l-20.9,-37.2c-2.5,-4.9 -4.5,-9 -6,-13.2c0.4,5.9 0.7,22.3 0.7,32.1l0,18.3l-12.5,0l0,-67.5l17.2,0l20.4,36.3c2.4,4.2 4.7,9.1 6.5,13.5c-0.4,-6.8 -0.7,-23.4 -0.7,-32.8l0,-17l12.5,0l0,67.5l-17.2,0z" id="svg_2" fill="#bfbfbf"/>
  </g>
  <path d="m61.3,68.6l0,-67.6l41.4,0l0,10.9l-28.4,0l0,16.6l19.6,0l0,10.6l-19.6,0l0,18.2l28.4,0l0,11.2l-41.4,0l0,0.1z" id="svg_3" fill="#bfbfbf"/>
  <path d="m201.3,69.7c-20.6,0 -30.7,-13.1 -30.7,-33.8c0,-22.4 14.9,-35.9 33,-35.9c20.6,0 30.7,13.1 30.7,33.8c0,22.4 -14.9,35.9 -33,35.9zm1.2,-58.1c-10.2,0 -18,8.1 -18,22.6c0,14.4 5.8,23.6 17.9,23.6c10.2,0 18,-8 18,-22.6c0,-14.3 -5.8,-23.6 -17.9,-23.6z" id="svg_4" fill="#bfbfbf"/>
  <rect x="115.6" y="1" width="13" height="67.5" id="svg_5" fill="#bfbfbf"/>
  <g id="svg_6">
   <polygon class="st0" points="171.59999656677246,1.099999189376831 156.7000026702881,1.099999189376831 132.0000057220459,34.20000147819519 191.09999656677246,112.19999384880066 206.09999656677246,112.19999384880066 147.0000057220459,34.09999918937683 " id="svg_7"/>
  </g>
  <g id="svg_8">
   <path d="m220.9,104.9c-1,0 -1.9,-0.1 -1.9,-0.1l0,7.4l-2.1,0l0,-18.9c0,0 2.4,-0.1 4.5,-0.1c4.2,0 6.6,2.2 6.6,5.4c-0.1,3.7 -2.7,6.3 -7.1,6.3zm0.2,-9.9c-1.1,0 -2,0.1 -2,0.1l0,7.9c0,0 1,0.2 2.1,0.2c3.1,0 4.6,-1.7 4.6,-4.1c-0.1,-2.7 -1.6,-4.1 -4.7,-4.1z" id="svg_9" fill="#bfbfbf"/>
   <path d="m237.9,100.2c-3.1,-0.5 -4.5,1.8 -4.5,6.5l0,5.6l-2.1,0l0,-14l2.1,0c0,0.9 -0.1,2.3 -0.3,3.5l0.1,0c0.6,-2 2,-4.1 4.9,-3.8l-0.2,2.2z" id="svg_10" fill="#bfbfbf"/>
   <path d="m250.2,112.2c0,-0.9 0.1,-2.3 0.2,-3.1l-0.1,0c-0.8,2 -2.5,3.4 -5,3.4c-3.2,0 -4.2,-2 -4.2,-4.5l0,-9.7l2.1,0l0,9c0,2.2 0.6,3.4 2.6,3.4c2.5,0 4.3,-2.5 4.3,-5.8l0,-6.6l2.1,0l0,13.9l-2,0zm-6.1,-17c-0.8,0 -1.3,-0.6 -1.3,-1.3c0,-0.7 0.6,-1.3 1.3,-1.3c0.8,0 1.3,0.6 1.3,1.3c0,0.7 -0.6,1.3 -1.3,1.3zm5.2,0c-0.8,0 -1.3,-0.6 -1.3,-1.3c0,-0.7 0.6,-1.3 1.3,-1.3c0.7,0 1.3,0.6 1.3,1.3c0.1,0.7 -0.5,1.3 -1.3,1.3z" id="svg_11" fill="#bfbfbf"/>
   <path d="m265.4,93.7c-0.7,-0.2 -1.5,-0.3 -2.2,-0.3c-2.1,0 -3.1,1.2 -3.1,3.9l0,1l4.1,0l0,1.7l-4.1,0l0,12.3l-2.1,0l0,-12.3l-3,0l0,-1.7l3,0l0,-1c0,-3.9 1.9,-5.7 5.3,-5.7c0.8,0 1.5,0.1 2.3,0.3l-0.2,1.8z" id="svg_12" fill="#bfbfbf"/>
   <path d="m270.7,112.4c-2.8,0 -3.6,-1.2 -3.6,-4.1l0,-8.4l-3,0l0,-1.6l3,0l0,-4.6l2.1,-0.6l0,5.2l4.1,0l0,1.7l-4.1,0l0,7.5c0,2.5 0.4,3.1 2.1,3.1c0.7,0 1.3,-0.1 1.9,-0.2l0.3,1.8c-0.9,0.1 -2,0.2 -2.8,0.2z" id="svg_13" fill="#bfbfbf"/>
   <path d="m287.1,105.1l-9.3,0c-0.1,3.9 1.5,5.6 4.6,5.6c1.3,0 2.7,-0.3 3.9,-0.8l0.4,1.7c-1.4,0.5 -3,0.9 -4.7,0.9c-4.1,0 -6.4,-2.3 -6.4,-7.1c0,-4.1 2.3,-7.3 6.1,-7.3c3.8,0 5.4,2.6 5.4,5.6c0,0.3 0,0.8 0,1.4zm-5.5,-5.4c-2,0 -3.4,1.4 -3.7,3.9l7.1,0c0,-2.5 -1.3,-3.9 -3.4,-3.9z" id="svg_14" fill="#bfbfbf"/>
   <path d="m295.7,112.4c-3.1,0 -6,-1.4 -6,-6.7c0,-4.6 2.3,-7.6 6.6,-7.6c1.3,0 2.6,0.2 3.6,0.6l-0.4,1.8c-0.9,-0.4 -2.2,-0.7 -3.4,-0.7c-2.7,0 -4.2,2.3 -4.2,5.6c0,2.9 0.9,5.2 4.2,5.2c1.3,0 2.4,-0.3 3.4,-0.7l0.4,1.7c-1.1,0.5 -2.7,0.8 -4.2,0.8z" id="svg_15" fill="#bfbfbf"/>
   <path d="m312.3,112.2l0,-9c0,-2.2 -0.6,-3.4 -2.6,-3.4c-2.5,0 -4.3,2.5 -4.3,5.8l0,6.7l-2.1,0l0,-20.4l2.1,0l0,6.8c0,0.9 -0.1,2.1 -0.2,2.8l0.1,0c0.8,-2 2.5,-3.4 5,-3.4c3.2,0 4.2,2 4.2,4.5l0,9.7l-2.2,0l0,-0.1z" id="svg_16" fill="#bfbfbf"/>
   <path d="m328.5,112.2l0,-9c0,-2.2 -0.6,-3.4 -2.6,-3.4c-2.5,0 -4.3,2.5 -4.3,5.8l0,6.7l-2.1,0l0,-14l2.1,0c0,0.9 -0.1,2.3 -0.2,3.1l0.1,0c0.8,-2 2.5,-3.4 5,-3.4c3.2,0 4.2,2 4.2,4.5l0,9.7l-2.2,0z" id="svg_17" fill="#bfbfbf"/>
   <path d="m336.7,95.3c-0.8,0 -1.5,-0.6 -1.5,-1.4c0,-0.8 0.6,-1.4 1.5,-1.4c0.8,0 1.5,0.6 1.5,1.4c0,0.7 -0.7,1.4 -1.5,1.4zm-1,16.9l0,-13.9l2.1,0l0,13.9l-2.1,0z" id="svg_18" fill="#bfbfbf"/>
   <path d="m350.4,112.2l-5.5,-7.3l0,7.3l-2,0l0,-20.4l2.1,0l0,12.8l5.2,-6.2l2.5,0l-5.5,6.3l6,7.6l-2.8,0l0,-0.1z" id="svg_19" fill="#bfbfbf"/>
   <path d="m370.5,112.5c-5.8,0 -9.3,-3.5 -9.3,-9.3c0,-5.8 3.4,-10.1 10,-10.1c1.8,0 3.5,0.3 5.2,0.8l-0.5,2c-1.6,-0.6 -3.3,-1 -5,-1c-5.3,0 -7.5,3.8 -7.5,8c0,5 2.8,7.8 7.4,7.8c1.4,0 2.5,-0.2 3.7,-0.6l0,-7.4l2.2,0l0,8.7c-1.9,0.7 -4.2,1.1 -6.2,1.1z" id="svg_20" fill="#bfbfbf"/>
   <path d="m399.2,112.2l0,-9c0,-2.1 -0.5,-3.5 -2.5,-3.5c-2.1,0 -4.2,2.2 -4.2,5.8l0,6.6l-2.1,0l0,-9c0,-1.9 -0.4,-3.4 -2.5,-3.4c-2.3,0 -4.2,2.4 -4.2,5.8l0,6.6l-2.1,0l0,-13.8l2.1,0c0,0.9 -0.1,2.2 -0.2,3.1l0.1,0c0.8,-2 2.6,-3.4 4.9,-3.4c3.2,0 3.8,2.3 3.9,3.3c0.5,-1.3 2,-3.3 4.8,-3.3c2.6,0 4.1,1.4 4.1,4.5l0,9.6l-2.1,0l0,0.1z" id="svg_21" fill="#bfbfbf"/>
   <path d="m411,112.4c-1.9,0 -3.2,-0.1 -4.6,-0.5l0,-20.1l2.1,0l0,7.1c0,0.8 -0.1,1.8 -0.3,2.5l0.1,0c0.8,-2.1 2.6,-3.4 4.8,-3.4c3.3,0 5.1,2.3 5.1,6.6c0,5 -2.8,7.8 -7.2,7.8zm1.6,-12.6c-2.8,0 -4.1,3.2 -4.1,5.7l0,4.9c0.8,0.3 1.7,0.4 2.7,0.4c2.9,0 4.8,-1.7 4.8,-5.9c0,-3.2 -1.1,-5.1 -3.4,-5.1z" id="svg_22" fill="#bfbfbf"/>
   <path d="m434.4,112.2l0,-8.9l-10.3,0l0,8.9l-2.2,0l0,-18.9l2.2,0l0,8.2l10.3,0l0,-8.2l2.1,0l0,18.9l-2.1,0z" id="svg_23" fill="#bfbfbf"/>
  </g>
  <polygon points="0,1.0000007152557373 0,12.500000715255737 19.80000114440918,12.500000715255737 19.80000114440918,68.6000030040741 32.80000114440918,68.6000030040741 32.80000114440918,12.500000715255737 52.59999656677246,12.500000715255737 52.59999656677246,1.0000007152557373 " id="svg_24" fill="#bfbfbf"/>
 </g>
</svg>